<svg xmlns="http://www.w3.org/2000/svg" xmlns:xlink="http://www.w3.org/1999/xlink" width="2000" zoomAndPan="magnify" viewBox="0 0 1500 1499.999933" height="2000" preserveAspectRatio="xMidYMid meet" version="1.0"><defs><g/><clipPath id="b42d413944"><path d="M 620 670 L 675.878906 670 L 675.878906 726 L 620 726 Z M 620 670 " clip-rule="nonzero"/></clipPath><clipPath id="439f665f4c"><rect x="0" width="646" y="0" height="492"/></clipPath></defs><path fill="#2f7d6d" d="M 555.664062 670.199219 C 552.875 710.585938 550.617188 712.851562 510.226562 715.636719 C 550.617188 718.425781 552.875 720.6875 555.664062 761.078125 C 558.453125 720.6875 560.710938 718.425781 601.101562 715.636719 C 560.710938 712.851562 558.453125 710.585938 555.664062 670.199219 " fill-opacity="1" fill-rule="nonzero"/><path fill="#2f7d6d" d="M 612.402344 602.085938 C 610.699219 626.773438 609.316406 628.15625 584.628906 629.863281 C 609.316406 631.566406 610.699219 632.949219 612.402344 657.636719 C 614.109375 632.949219 615.488281 631.566406 640.179688 629.863281 C 615.488281 628.15625 614.109375 626.773438 612.402344 602.085938 " fill-opacity="1" fill-rule="nonzero"/><g clip-path="url(#b42d413944)"><path fill="#2f7d6d" d="M 647.785156 670.199219 C 646.082031 694.890625 644.699219 696.269531 620.007812 697.976562 C 644.699219 699.679688 646.082031 701.0625 647.785156 725.75 C 649.488281 701.0625 650.871094 699.679688 675.5625 697.976562 C 650.871094 696.269531 649.488281 694.890625 647.785156 670.199219 " fill-opacity="1" fill-rule="nonzero"/></g><path fill="#2f7d6d" d="M 555.664062 593.660156 C 554.847656 605.460938 554.1875 606.121094 542.390625 606.933594 C 554.1875 607.746094 554.847656 608.40625 555.664062 620.207031 C 556.476562 608.40625 557.136719 607.746094 568.9375 606.933594 C 557.136719 606.121094 556.476562 605.460938 555.664062 593.660156 " fill-opacity="1" fill-rule="nonzero"/><path fill="#2f7d6d" d="M 523.496094 644.367188 C 522.679688 656.164062 522.019531 656.824219 510.226562 657.636719 C 522.019531 658.453125 522.679688 659.117188 523.496094 670.910156 C 524.308594 659.117188 524.96875 658.453125 536.769531 657.636719 C 524.96875 656.824219 524.308594 656.164062 523.496094 644.367188 " fill-opacity="1" fill-rule="nonzero"/><path fill="#2f7d6d" d="M 252.535156 735.289062 C 250.953125 758.210938 249.667969 759.496094 226.75 761.078125 C 249.667969 762.660156 250.953125 763.941406 252.535156 786.859375 C 254.117188 763.941406 255.402344 762.660156 278.320312 761.078125 C 255.402344 759.496094 254.117188 758.210938 252.535156 735.289062 " fill-opacity="1" fill-rule="nonzero"/><path fill="#2f7d6d" d="M 262.558594 682.214844 C 261.589844 696.226562 260.804688 697.007812 246.792969 697.976562 C 260.804688 698.941406 261.589844 699.726562 262.558594 713.742188 C 263.523438 699.726562 264.308594 698.941406 278.320312 697.976562 C 264.308594 697.007812 263.523438 696.226562 262.558594 682.214844 " fill-opacity="1" fill-rule="nonzero"/><path fill="#2f7d6d" d="M 304.109375 725.75 C 303.140625 739.765625 302.359375 740.550781 288.34375 741.519531 C 302.359375 742.484375 303.140625 743.269531 304.109375 757.277344 C 305.074219 743.269531 305.859375 742.484375 319.871094 741.519531 C 305.859375 740.550781 305.074219 739.765625 304.109375 725.75 " fill-opacity="1" fill-rule="nonzero"/><path fill="#2f7d6d" d="M 293.386719 698.675781 C 292.921875 705.371094 292.550781 705.746094 285.855469 706.207031 C 292.550781 706.671875 292.921875 707.046875 293.386719 713.742188 C 293.847656 707.046875 294.222656 706.671875 300.917969 706.207031 C 294.222656 705.746094 293.847656 705.371094 293.386719 698.675781 " fill-opacity="1" fill-rule="nonzero"/><path fill="#2f7d6d" d="M 544.628906 959.644531 C 591.152344 913.117188 613.722656 851.703125 612.347656 790.738281 C 607.65625 836.140625 587.929688 880.289062 553.136719 915.082031 C 472.714844 995.503906 342.332031 995.503906 261.910156 915.082031 C 181.492188 834.664062 181.492188 704.277344 261.910156 623.855469 C 296.703125 589.0625 340.851562 569.335938 386.257812 564.648438 C 325.292969 563.269531 263.878906 585.835938 217.351562 632.371094 C 126.976562 722.742188 126.976562 869.265625 217.351562 959.644531 C 307.726562 1050.019531 454.25 1050.019531 544.628906 959.644531 " fill-opacity="1" fill-rule="nonzero"/><path fill="#2f7d6d" d="M 489.835938 897.171875 L 466.757812 745.746094 L 389.664062 715.636719 L 270.070312 811.339844 L 287.105469 817.996094 L 337.5 772.242188 L 300.457031 823.210938 L 312.242188 827.8125 L 352.679688 778.164062 L 322.273438 831.730469 L 330.734375 835.039062 L 367.851562 784.089844 L 337.449219 837.65625 L 344.804688 840.527344 L 383.03125 790.019531 L 352.625 843.582031 L 359.980469 846.457031 L 398.203125 795.949219 L 367.800781 849.507812 L 376.207031 852.789062 L 383.347656 838.195312 L 397.601562 809.0625 L 388.34375 840.144531 L 383.703125 855.71875 L 392.109375 859.003906 L 406.050781 799.007812 L 399.929688 862.054688 L 407.285156 864.925781 L 421.230469 804.9375 L 415.105469 867.984375 L 422.460938 870.855469 L 436.398438 810.863281 L 429.171875 873.476562 L 437.640625 876.78125 L 451.578125 816.792969 L 447.667969 880.699219 L 459.453125 885.300781 L 466.757812 822.714844 L 472.804688 890.515625 L 489.835938 897.171875 " fill-opacity="1" fill-rule="nonzero"/><path fill="#2f7d6d" d="M 545.085938 455.90625 L 528.261719 450 L 440.367188 675.0625 L 400.375 707.066406 L 464.6875 732.1875 L 456.96875 681.542969 L 545.085938 455.90625 " fill-opacity="1" fill-rule="nonzero"/><g transform="matrix(1, 0, 0, 1, 698, 504)"><g clip-path="url(#439f665f4c)"><g fill="#000000" fill-opacity="1"><g transform="translate(0.805442, 128.999925)"><g><path d="M 71.84375 -24.46875 C 75.96875 -24.46875 79.972656 -25.09375 83.859375 -26.34375 C 87.742188 -27.59375 90.597656 -28.796875 92.421875 -29.953125 L 95.15625 -31.8125 L 106.6875 -8.78125 C 106.300781 -8.488281 105.769531 -8.101562 105.09375 -7.625 C 104.425781 -7.144531 102.867188 -6.253906 100.421875 -4.953125 C 97.972656 -3.660156 95.351562 -2.535156 92.5625 -1.578125 C 89.78125 -0.617188 86.132812 0.238281 81.625 1 C 77.113281 1.769531 72.460938 2.15625 67.671875 2.15625 C 56.628906 2.15625 46.164062 -0.550781 36.28125 -5.96875 C 26.394531 -11.394531 18.425781 -18.859375 12.375 -28.359375 C 6.332031 -37.859375 3.3125 -48.128906 3.3125 -59.171875 C 3.3125 -67.523438 5.085938 -75.539062 8.640625 -83.21875 C 12.191406 -90.894531 16.914062 -97.46875 22.8125 -102.9375 C 28.71875 -108.40625 35.601562 -112.769531 43.46875 -116.03125 C 51.34375 -119.300781 59.410156 -120.9375 67.671875 -120.9375 C 75.347656 -120.9375 82.425781 -120.023438 88.90625 -118.203125 C 95.382812 -116.378906 99.96875 -114.554688 102.65625 -112.734375 L 106.6875 -109.984375 L 95.15625 -86.953125 C 94.488281 -87.535156 93.484375 -88.234375 92.140625 -89.046875 C 90.796875 -89.859375 88.109375 -90.9375 84.078125 -92.28125 C 80.046875 -93.625 75.96875 -94.296875 71.84375 -94.296875 C 65.3125 -94.296875 59.453125 -93.238281 54.265625 -91.125 C 49.085938 -89.019531 44.988281 -86.238281 41.96875 -82.78125 C 38.945312 -79.320312 36.644531 -75.601562 35.0625 -71.625 C 33.476562 -67.644531 32.6875 -63.585938 32.6875 -59.453125 C 32.6875 -50.429688 36.066406 -42.34375 42.828125 -35.1875 C 49.597656 -28.039062 59.269531 -24.46875 71.84375 -24.46875 Z M 71.84375 -24.46875 "/></g></g></g><g fill="#000000" fill-opacity="1"><g transform="translate(109.202084, 128.999925)"><g><path d="M 35.703125 -118.78125 L 35.703125 -23.75 L 76.59375 -23.75 L 76.59375 0 L 8.640625 0 L 8.640625 -118.78125 Z M 35.703125 -118.78125 "/></g></g></g><g fill="#000000" fill-opacity="1"><g transform="translate(190.535557, 128.999925)"><g><path d="M 76.59375 -118.78125 L 76.59375 -95.015625 L 35.703125 -95.015625 L 35.703125 -71.40625 L 74.859375 -71.40625 L 74.859375 -47.65625 L 35.703125 -47.65625 L 35.703125 -23.75 L 76.59375 -23.75 L 76.59375 0 L 8.640625 0 L 8.640625 -118.78125 Z M 76.59375 -118.78125 "/></g></g></g><g fill="#000000" fill-opacity="1"><g transform="translate(274.028348, 128.999925)"><g><path d="M 68.96875 -118.78125 L 116.90625 0 L 87.828125 0 L 79.03125 -23.75 L 33.828125 -23.75 L 25.046875 0 L -4.03125 0 L 43.90625 -118.78125 Z M 69.828125 -47.515625 L 56.578125 -82.0625 L 56.296875 -82.0625 L 43.046875 -47.515625 Z M 69.828125 -47.515625 "/></g></g></g><g fill="#000000" fill-opacity="1"><g transform="translate(386.887547, 128.999925)"><g><path d="M 35.703125 -73.71875 L 35.703125 0 L 8.640625 0 L 8.640625 -118.78125 L 35.703125 -118.78125 L 82.921875 -45.0625 L 83.21875 -45.0625 L 83.21875 -118.78125 L 110.28125 -118.78125 L 110.28125 0 L 83.21875 0 L 36 -73.71875 Z M 35.703125 -73.71875 "/></g></g></g><g fill="#000000" fill-opacity="1"><g transform="translate(0.805442, 284.999912)"><g><path d="M 106.828125 0 L 101.203125 -70.40625 L 100.484375 -70.40625 L 76.15625 -0.71875 L 60.03125 -0.71875 L 35.703125 -70.40625 L 34.984375 -70.40625 L 29.375 0 L 2.296875 0 L 12.953125 -118.78125 L 41.75 -118.78125 L 68.09375 -50.25 L 94.4375 -118.78125 L 123.234375 -118.78125 L 133.890625 0 Z M 106.828125 0 "/></g></g></g><g fill="#000000" fill-opacity="1"><g transform="translate(136.985042, 284.999912)"><g><path d="M -4.3125 -118.78125 L 28.21875 -118.78125 L 52.984375 -80.765625 L 77.75 -118.78125 L 110.28125 -118.78125 L 66.515625 -53.265625 L 66.515625 0 L 39.453125 0 L 39.453125 -53.265625 Z M -4.3125 -118.78125 "/></g></g></g><g fill="#000000" fill-opacity="1"><g transform="translate(0.805442, 440.999899)"><g><path d="M 8.640625 -118.78125 L 51.96875 -118.78125 C 64.0625 -118.78125 73.851562 -115.660156 81.34375 -109.421875 C 88.832031 -103.179688 92.578125 -94.109375 92.578125 -82.203125 C 92.578125 -70.304688 88.785156 -60.972656 81.203125 -54.203125 C 73.617188 -47.429688 63.875 -44.046875 51.96875 -44.046875 L 35.703125 -44.046875 L 35.703125 0 L 8.640625 0 Z M 35.703125 -65.65625 L 43.328125 -65.65625 C 49.378906 -65.65625 54.347656 -66.878906 58.234375 -69.328125 C 62.117188 -71.773438 64.0625 -75.78125 64.0625 -81.34375 C 64.0625 -87.007812 62.117188 -91.0625 58.234375 -93.5 C 54.347656 -95.945312 49.378906 -97.171875 43.328125 -97.171875 L 35.703125 -97.171875 Z M 35.703125 -65.65625 "/></g></g></g><g fill="#000000" fill-opacity="1"><g transform="translate(96.678177, 440.999899)"><g><path d="M 8.640625 -118.78125 L 51.109375 -118.78125 C 62.523438 -118.78125 71.832031 -115.726562 79.03125 -109.625 C 86.238281 -103.53125 89.84375 -94.820312 89.84375 -83.5 C 89.84375 -74.769531 87.65625 -67.453125 83.28125 -61.546875 C 78.914062 -55.640625 72.988281 -51.488281 65.5 -49.09375 L 106.390625 0 L 71.984375 0 L 35.703125 -46.9375 L 35.703125 0 L 8.640625 0 Z M 35.703125 -66.078125 L 38.875 -66.078125 C 41.363281 -66.078125 43.472656 -66.125 45.203125 -66.21875 C 46.929688 -66.320312 48.898438 -66.660156 51.109375 -67.234375 C 53.316406 -67.804688 55.09375 -68.617188 56.4375 -69.671875 C 57.78125 -70.734375 58.929688 -72.269531 59.890625 -74.28125 C 60.847656 -76.300781 61.328125 -78.75 61.328125 -81.625 C 61.328125 -84.507812 60.847656 -86.957031 59.890625 -88.96875 C 58.929688 -90.988281 57.78125 -92.523438 56.4375 -93.578125 C 55.09375 -94.628906 53.316406 -95.441406 51.109375 -96.015625 C 48.898438 -96.597656 46.929688 -96.9375 45.203125 -97.03125 C 43.472656 -97.125 41.363281 -97.171875 38.875 -97.171875 L 35.703125 -97.171875 Z M 35.703125 -66.078125 "/></g></g></g><g fill="#000000" fill-opacity="1"><g transform="translate(199.748556, 440.999899)"><g><path d="M 3.3125 -59.453125 C 3.3125 -76.640625 9.164062 -91.179688 20.875 -103.078125 C 32.582031 -114.984375 46.691406 -120.9375 63.203125 -120.9375 C 79.804688 -120.9375 93.914062 -115.007812 105.53125 -103.15625 C 117.144531 -91.300781 122.953125 -76.734375 122.953125 -59.453125 C 122.953125 -42.085938 117.238281 -27.476562 105.8125 -15.625 C 94.394531 -3.769531 80.191406 2.15625 63.203125 2.15625 C 45.828125 2.15625 31.5 -3.71875 20.21875 -15.46875 C 8.945312 -27.226562 3.3125 -41.890625 3.3125 -59.453125 Z M 32.53125 -59.453125 C 32.53125 -53.210938 33.488281 -47.523438 35.40625 -42.390625 C 37.332031 -37.265625 40.691406 -32.925781 45.484375 -29.375 C 50.285156 -25.820312 56.191406 -24.046875 63.203125 -24.046875 C 73.273438 -24.046875 80.878906 -27.5 86.015625 -34.40625 C 91.148438 -41.320312 93.71875 -49.671875 93.71875 -59.453125 C 93.71875 -69.148438 91.101562 -77.476562 85.875 -84.4375 C 80.644531 -91.394531 73.085938 -94.875 63.203125 -94.875 C 53.410156 -94.875 45.847656 -91.394531 40.515625 -84.4375 C 35.191406 -77.476562 32.53125 -69.148438 32.53125 -59.453125 Z M 32.53125 -59.453125 "/></g></g></g><g fill="#000000" fill-opacity="1"><g transform="translate(325.995418, 440.999899)"><g><path d="M 106.828125 0 L 101.203125 -70.40625 L 100.484375 -70.40625 L 76.15625 -0.71875 L 60.03125 -0.71875 L 35.703125 -70.40625 L 34.984375 -70.40625 L 29.375 0 L 2.296875 0 L 12.953125 -118.78125 L 41.75 -118.78125 L 68.09375 -50.25 L 94.4375 -118.78125 L 123.234375 -118.78125 L 133.890625 0 Z M 106.828125 0 "/></g></g></g><g fill="#000000" fill-opacity="1"><g transform="translate(462.175018, 440.999899)"><g><path d="M 8.640625 -118.78125 L 51.96875 -118.78125 C 64.0625 -118.78125 73.851562 -115.660156 81.34375 -109.421875 C 88.832031 -103.179688 92.578125 -94.109375 92.578125 -82.203125 C 92.578125 -70.304688 88.785156 -60.972656 81.203125 -54.203125 C 73.617188 -47.429688 63.875 -44.046875 51.96875 -44.046875 L 35.703125 -44.046875 L 35.703125 0 L 8.640625 0 Z M 35.703125 -65.65625 L 43.328125 -65.65625 C 49.378906 -65.65625 54.347656 -66.878906 58.234375 -69.328125 C 62.117188 -71.773438 64.0625 -75.78125 64.0625 -81.34375 C 64.0625 -87.007812 62.117188 -91.0625 58.234375 -93.5 C 54.347656 -95.945312 49.378906 -97.171875 43.328125 -97.171875 L 35.703125 -97.171875 Z M 35.703125 -65.65625 "/></g></g></g><g fill="#000000" fill-opacity="1"><g transform="translate(558.047753, 440.999899)"><g><path d="M 1.15625 -95.015625 L 1.15625 -118.78125 L 84.65625 -118.78125 L 84.65625 -95.015625 L 56.4375 -95.015625 L 56.4375 0 L 29.375 0 L 29.375 -95.015625 Z M 1.15625 -95.015625 "/></g></g></g></g></g></svg>