<svg xmlns="http://www.w3.org/2000/svg" xmlns:xlink="http://www.w3.org/1999/xlink" width="2000" zoomAndPan="magnify" viewBox="0 0 1500 1499.999933" height="2000" preserveAspectRatio="xMidYMid meet" version="1.0"><defs><clipPath id="72be4922e8"><path d="M 1192 588 L 1304.476562 588 L 1304.476562 701 L 1192 701 Z M 1192 588 " clip-rule="nonzero"/></clipPath><clipPath id="0ccfa82b44"><path d="M 748 143.476562 L 1041 143.476562 L 1041 714 L 748 714 Z M 748 143.476562 " clip-rule="nonzero"/></clipPath></defs><path fill="#2f7d6d" d="M 1062.125 588.664062 C 1056.484375 670.316406 1051.917969 674.894531 970.265625 680.527344 C 1051.917969 686.164062 1056.484375 690.738281 1062.125 772.394531 C 1067.761719 690.738281 1072.328125 686.164062 1153.984375 680.527344 C 1072.328125 674.894531 1067.761719 670.316406 1062.125 588.664062 " fill-opacity="1" fill-rule="nonzero"/><path fill="#2f7d6d" d="M 1176.835938 450.957031 C 1173.390625 500.867188 1170.597656 503.664062 1120.683594 507.109375 C 1170.597656 510.558594 1173.390625 513.351562 1176.835938 563.265625 C 1180.285156 513.351562 1183.078125 510.558594 1232.992188 507.109375 C 1183.078125 503.664062 1180.285156 500.867188 1176.835938 450.957031 " fill-opacity="1" fill-rule="nonzero"/><g clip-path="url(#72be4922e8)"><path fill="#2f7d6d" d="M 1248.371094 588.664062 C 1244.925781 638.578125 1242.128906 641.371094 1192.214844 644.820312 C 1242.128906 648.265625 1244.925781 651.058594 1248.371094 700.972656 C 1251.816406 651.058594 1254.613281 648.265625 1304.527344 644.820312 C 1254.613281 641.371094 1251.816406 638.578125 1248.371094 588.664062 " fill-opacity="1" fill-rule="nonzero"/></g><path fill="#2f7d6d" d="M 1062.125 433.921875 C 1060.476562 457.777344 1059.144531 459.109375 1035.289062 460.757812 C 1059.144531 462.402344 1060.476562 463.734375 1062.125 487.589844 C 1063.769531 463.734375 1065.105469 462.402344 1088.960938 460.757812 C 1065.105469 459.109375 1063.769531 457.777344 1062.125 433.921875 " fill-opacity="1" fill-rule="nonzero"/><path fill="#2f7d6d" d="M 997.089844 536.441406 C 995.441406 560.285156 994.109375 561.621094 970.265625 563.265625 C 994.109375 564.914062 995.441406 566.257812 997.089844 590.101562 C 998.734375 566.257812 1000.066406 564.914062 1023.925781 563.265625 C 1000.066406 561.621094 998.734375 560.285156 997.089844 536.441406 " fill-opacity="1" fill-rule="nonzero"/><path fill="#2f7d6d" d="M 449.277344 720.253906 C 446.078125 766.597656 443.484375 769.199219 397.144531 772.394531 C 443.484375 775.59375 446.078125 778.179688 449.277344 824.523438 C 452.476562 778.179688 455.070312 775.59375 501.414062 772.394531 C 455.070312 769.199219 452.476562 766.597656 449.277344 720.253906 " fill-opacity="1" fill-rule="nonzero"/><path fill="#2f7d6d" d="M 469.542969 612.953125 C 467.589844 641.277344 466 642.863281 437.671875 644.820312 C 466 646.773438 467.589844 648.359375 469.542969 676.691406 C 471.496094 648.359375 473.082031 646.773438 501.414062 644.820312 C 473.082031 642.863281 471.496094 641.277344 469.542969 612.953125 " fill-opacity="1" fill-rule="nonzero"/><path fill="#2f7d6d" d="M 553.546875 700.972656 C 551.589844 729.308594 550.007812 730.894531 521.675781 732.851562 C 550.007812 734.808594 551.589844 736.386719 553.546875 764.714844 C 555.5 736.386719 557.089844 734.808594 585.417969 732.851562 C 557.089844 730.894531 555.5 729.308594 553.546875 700.972656 " fill-opacity="1" fill-rule="nonzero"/><path fill="#2f7d6d" d="M 531.867188 646.234375 C 530.933594 659.773438 530.175781 660.53125 516.640625 661.460938 C 530.175781 662.402344 530.933594 663.15625 531.867188 676.691406 C 532.804688 663.15625 533.5625 662.402344 547.097656 661.460938 C 533.5625 660.53125 532.804688 659.773438 531.867188 646.234375 " fill-opacity="1" fill-rule="nonzero"/><path fill="#2f7d6d" d="M 1039.8125 1173.84375 C 1133.878906 1079.777344 1179.507812 955.617188 1176.722656 832.355469 C 1167.242188 924.15625 1127.355469 1013.410156 1057.011719 1083.753906 C 894.425781 1246.34375 630.824219 1246.34375 468.234375 1083.753906 C 305.644531 921.167969 305.644531 657.558594 468.234375 494.96875 C 538.578125 424.625 627.832031 384.742188 719.632812 375.269531 C 596.371094 372.476562 472.210938 418.105469 378.148438 512.183594 C 195.433594 694.890625 195.433594 991.125 378.148438 1173.84375 C 560.859375 1356.5625 857.09375 1356.5625 1039.8125 1173.84375 " fill-opacity="1" fill-rule="nonzero"/><path fill="#2f7d6d" d="M 929.042969 1047.542969 L 882.378906 741.394531 L 726.519531 680.527344 L 484.730469 874.011719 L 519.171875 887.46875 L 621.058594 794.964844 L 546.164062 898.015625 L 569.988281 907.316406 L 651.742188 806.941406 L 590.269531 915.238281 L 607.378906 921.921875 L 682.421875 818.921875 L 620.953125 927.21875 L 635.824219 933.023438 L 713.105469 830.910156 L 651.632812 939.195312 L 666.503906 945.011719 L 743.78125 842.890625 L 682.316406 951.179688 L 699.308594 957.8125 L 713.746094 928.304688 L 742.570312 869.410156 L 723.847656 932.25 L 714.46875 963.734375 L 731.460938 970.375 L 759.648438 849.082031 L 747.269531 976.542969 L 762.144531 982.347656 L 790.332031 861.070312 L 777.953125 988.53125 L 792.824219 994.335938 L 821.003906 873.050781 L 806.394531 999.636719 L 823.511719 1006.320312 L 851.691406 885.039062 L 843.785156 1014.238281 L 867.609375 1023.539062 L 882.378906 897.011719 L 894.601562 1034.089844 L 929.042969 1047.542969 " fill-opacity="1" fill-rule="nonzero"/><g clip-path="url(#0ccfa82b44)"><path fill="#2f7d6d" d="M 1040.742188 155.417969 L 1006.726562 143.476562 L 829.027344 598.496094 L 748.171875 663.199219 L 878.195312 713.984375 L 862.589844 611.597656 L 1040.742188 155.417969 " fill-opacity="1" fill-rule="nonzero"/></g></svg>